<?xml version="1.0" encoding="UTF-8"?><svg id="Layer_1" xmlns="http://www.w3.org/2000/svg" viewBox="0 0 583.41 557"><defs><style>.cls-1{fill:#9a9592;}</style></defs><path class="cls-1" d="M579.37,149.73L531.34,13.53c-2.86-8.11-10.52-13.53-19.11-13.53H71.19c-8.6,0-16.26,5.42-19.11,13.53L4.04,149.73c-11.82,33.53,3,71.13,35.12,86.38,.71,.34,1.43,.66,2.15,.98,9.01,3.93,18.95,6.11,29.41,6.11,30.88,0,57.34-19.02,68.27-45.98,3.48-8.55,5.39-17.89,5.39-27.69,0,9.8,1.91,19.14,5.39,27.69,10.93,26.96,37.39,45.98,68.28,45.98s57.34-19.02,68.27-45.98c3.48-8.55,5.39-17.89,5.39-27.69,0,9.8,1.91,19.14,5.39,27.69,10.93,26.96,37.39,45.98,68.27,45.98s57.35-19.02,68.28-45.98c3.48-8.55,5.39-17.89,5.39-27.69,0,9.8,1.91,19.14,5.39,27.69,10.93,26.96,37.39,45.98,68.27,45.98,10.46,0,20.41-2.18,29.41-6.11,.72-.32,1.44-.64,2.15-.98,32.12-15.25,46.94-52.85,35.12-86.38Z"/><path class="cls-1" d="M439.03,235c-18.08,20.31-44.4,33.13-73.67,33.13s-55.58-12.82-73.66-33.13c-18.08,20.31-44.4,33.13-73.66,33.13s-55.59-12.82-73.67-33.13c-18.06,20.31-44.4,33.13-73.66,33.13-10.24,0-20.12-1.57-29.41-4.49v293.36H341.01v-245.44h130.03v245.44h71.06V263.64c-9.29,2.92-19.17,4.49-29.41,4.49-29.26,0-55.59-12.82-73.66-33.13Zm-195,208.22H112.37v-131.66H244.03v131.66Z"/></svg>